# AST/ASF file generated using VICON BodyLanguage
# -----------------------------------------------
:version 1.10
:name VICON
:units
  mass 1.0
  length 0.45
  angle deg
:documentation
   .ast/.asf automatically generated from VICON data using
   VICON BodyBuilder and BodyLanguage model FoxedUp or BRILLIANT.MOD
:root
   order TX TY TZ RX RY RZ
   axis XYZ
   position 0 0 0  
   orientation 0 0 0 
:bonedata
  begin
     id 1 
     name lhipjoint
     direction 0.692814 -0.645514 0.321437 
     length 2.38754 
     axis 0 0 0  XYZ
  end
  begin
     id 2 
     name lfemur
     direction 0.34202 -0.939693 0  
     length 6.41921  
     axis 0 0 20  XYZ
    dof rx ry rz
    limits (-160.0 20.0)
           (-70.0 70.0)
           (-60.0 70.0)
  end
  begin
     id 3 
     name ltibia
     direction 0.34202 -0.939693 0   
     length 6.98247   
     axis 0 0 20   XYZ
    dof rx
    limits (-10.0 170.0)
  end
  begin
     id 4 
     name lfoot
     direction 0.0947186 -0.260237 0.960888   
     length 1.83034   
     axis -90 7.62852e-016 20   XYZ
    dof rx rz
    limits (-45.0 90.0)
           (-70.0 20.0)
  end
  begin
     id 5 
     name ltoes
     direction 1.53538e-011 -4.21952e-011 1   
     length 0.920499   
     axis -90 7.62852e-016 20   XYZ
    dof rx
    limits (-90.0 20.0)
  end
  begin
     id 6 
     name rhipjoint
     direction -0.631686 -0.693949 0.345555   
     length 2.2209  
     axis 0 0 0  XYZ 
  end
  begin
     id 7 
     name rfemur
     direction -0.34202 -0.939693 0   
     length 6.49542   
     axis 0 0 -20   XYZ
    dof rx ry rz
    limits (-160.0 20.0)
           (-70.0 70.0)
           (-70.0 60.0)
  end
  begin
     id 8 
     name rtibia
     direction -0.34202 -0.939693 0   
     length 7.21712   
     axis 0 0 -20   XYZ
    dof rx
    limits (-10.0 170.0)
 end
 begin
     id 9 
     name rfoot
     direction -0.0825378 -0.226771 0.970444   
     length 1.89724  
     axis -90 -7.62852e-016 -20   XYZ
    dof rx rz
    limits (-45.0 90.0)
           (-20.0 70.0)
  end
  begin
     id 10 
     name rtoes
     direction -1.53515e-011 -4.22016e-011 1   
     length 0.955868   
     axis -90 -7.62852e-016 -20   XYZ
    dof rx
    limits (-90.0 20.0)
  end
  begin
     id 11 
     name lowerback
     direction -0.0104711 0.984802 -0.173368   
     length 1.84931   
     axis 0 0 0   XYZ
    dof rx ry rz
    limits (-20.0 45.0)
           (-30.0 30.0)
           (-30.0 30.0)
  end
  begin
     id 12 
     name upperback
     direction -0.00286433 0.999996 -0.000382853   
     length 1.85768   
     axis 0 0 0   XYZ
    dof rx ry rz
    limits (-20.0 45.0)
           (-30.0 30.0)
           (-30.0 30.0)
  end
  begin
     id 13 
     name thorax
     direction 0.00167534 0.996793 0.0800069   
     length 1.92   
     axis 0 0 0   XYZ
    dof rx ry rz
    limits (-20.0 45.0)
           (-30.0 30.0)
           (-30.0 30.0)
  end
  begin
     id 14 
     name lowerneck
     direction -0.0672491 0.995415 0.068018   
     length 1.58923   
     axis 0 0 0   XYZ
    dof rx ry rz
    limits (-20.0 45.0)
           (-30.0 30.0)
           (-30.0 30.0)
  end
  begin
     id 15 
     name upperneck
     direction 0.0958019 0.982476 -0.159884   
     length 1.60189   
     axis 0 0 0   XYZ
    dof rx ry rz
    limits (-20.0 45.0)
           (-30.0 30.0)
           (-30.0 30.0)
  end
  begin
     id 16
     name head
     direction 0.032989 0.997338 -0.0650226  
     length 1.61681  
     axis 0 0 0   XYZ
    dof rx ry rz
    limits (-20.0 45.0)
           (-30.0 30.0)
           (-30.0 30.0)
  end
  begin
     id 17 
     name lclavicle
     direction 0.954279 0.298875 -0.00496069  
     length 2.99449  
     axis 0 0 0   XYZ
    dof ry rz
    limits (-20.0 10.0)
           (0.0 20.0)
  end
  begin
     id 18 
     name lhumerus
     direction 1 -4.48985e-011 -4.2057e-027   
     length 4.79185   
     axis 180 -30 -90   XYZ
    dof rx ry rz
    limits (-60.0 90.0)
           (-90.0 90.0)
           (-90.0 90.0)
  end
  begin
     id 19
     name lradius
     direction 1 -4.48945e-011 1.15441e-028   
     length 2.65553   
     axis 180 -30 -90   XYZ
    dof rx
    limits (-10.0 170.0)
  end
  begin
     id 20
     name lwrist
     direction 1 -4.4899e-011 4.8894e-028   
     length 1.32777   
     axis -2.56392e-016 90 90   XYZ
    dof ry
    limits (-180.0 0.0)
 end
  begin
     id 21 
     name lhand
     direction 1 -4.48908e-011 9.7788e-028   
     length 0.743904   
     axis -6.23971e-016 90 90   XYZ
    dof rx rz
    limits (-90.0 90.0)
           (-45.0 45.0)
  end
  begin
     id 22 
     name lfingers
     direction 1 -4.49068e-011 1.95576e-027   
     length 0.599754   
     axis -1.24794e-015 90 90   XYZ
    dof rx
    limits (0.0 90.0)
  end
  begin
     id 23
     name lthumb
     direction 0.707107 -6.34883e-011 0.707107   
     length 0.861131   
     axis -90 45 2.85299e-015   XYZ
    dof rx rz
    limits (-45.0 45.0)
           (-45.0 45.0)
  end
  begin
     id 24 
     name rclavicle
     direction -0.957921 0.286916 0.00811568   
     length 3.06817  
     axis 0 0 0   XYZ 
    dof ry rz
    limits (-10.0 20.0)
           (-20.0 0.0)
  end
  begin
     id 25 
     name rhumerus
     direction -1 -4.48971e-011 -3.07942e-027  
     length 4.77254   
     axis 180 30 90   XYZ
    dof rx ry rz
    limits (-90.0 60.0)
           (-90.0 90.0)
           (-90.0 90.0)
  end
  begin
     id 26 
     name rradius
     direction -1 -4.48957e-011 -9.6815e-028   
     length 2.75995   
     axis 180 30 90   XYZ
    dof rx
    limits (-10.0 170.0)
  end
  begin
     id 27 
     name rwrist
     direction -1 -4.48979e-011 4.8894e-028   
     length 1.37997   
     axis -2.56392e-016 -90 -90   XYZ
    dof ry
    limits (-180.0 0.0)
  end
  begin
     id 28
     name rhand
     direction -1 -4.48906e-011 9.7788e-028   
     length 0.701619   
     axis -6.23971e-016 -90 -90   XYZ
    dof rx rz
    limits (-90.0 90.0)
           (-45.0 45.0)
  end
  begin
     id 29
     name rfingers
     direction -1 -4.49018e-011 1.95576e-027   
     length 0.565663   
     axis -1.24794e-015 -90 -90   XYZ
    dof rx
    limits (0.0 90.0)
  end
  begin
     id 30
     name rthumb
     direction -0.707107 -6.34881e-011 0.707107   
     length 0.812183   
     axis -90 -45 -2.85299e-015   XYZ
    dof rx rz
    limits (-45.0 45.0)
           (-45.0 45.0)
  end
:hierarchy
  begin
    root lhipjoint rhipjoint lowerback
    lhipjoint lfemur
    lfemur ltibia
    ltibia lfoot
    lfoot ltoes
    rhipjoint rfemur
    rfemur rtibia
    rtibia rfoot
    rfoot rtoes
    lowerback upperback
    upperback thorax
    thorax lowerneck lclavicle rclavicle
    lowerneck upperneck
    upperneck head
    lclavicle lhumerus
    lhumerus lradius
    lradius lwrist
    lwrist lhand lthumb
    lhand lfingers
    rclavicle rhumerus
    rhumerus rradius
    rradius rwrist
    rwrist rhand rthumb
    rhand rfingers
  end

#!OML:ASF F:\VICON\USERDATA\INSTALL\rory3\rory3.ASF
:FULLY-SPECIFIED
:DEGREES
161
root -8.50304 15.63 6.01696 -173.701 55.0188 -170.064
lowerback 11.1225 0.461698 4.14053
upperback -0.691706 1.26988 0.964045
thorax -6.91942 0.501844 -1.53284
lowerneck -11.8177 -7.86172 -11.8518
upperneck 29.2904 -9.36695 6.57242
head 12.5975 -4.31516 3.22314
rclavicle 6.71519e-015 1.55052e-014
rhumerus -30.5068 -0.159057 -86.4867
rradius 31.4437
rwrist 8.12933
rhand -17.3175 13.8636
rfingers 7.12502
rthumb 8.92901 -15.9275
lclavicle 6.71519e-015 1.55052e-014
lhumerus -33.0022 9.28463 81.5255
lradius 27.7196
lwrist -1.07828
lhand -13.0297 12.9403
lfingers 7.12502
lthumb 13.0646 42.5111
rfemur -5.69474 5.13115 33.6919
rtibia 28.8599
rfoot -20.1121 -17.9484
rtoes 4.6795
lfemur -28.0888 -1.81011 -15.0597
ltibia 61.3436
lfoot -8.42333 7.90045
ltoes -6.93939
162
root -8.41221 15.6292 5.96371 -173.63 55.0684 -169.99
lowerback 11.0987 0.470428 4.20408
upperback -0.64501 1.28743 0.956802
thorax -6.85372 0.510333 -1.57845
lowerneck -11.953 -7.84509 -11.9344
upperneck 29.2342 -9.35417 6.69782
head 12.6133 -4.30432 3.28205
rclavicle 2.49102e-014 1.27222e-014
rhumerus -30.3408 0.147066 -86.7457
rradius 31.7361
rwrist 7.91039
rhand -17.2204 13.7834
rfingers 7.12502
rthumb 9.02271 -16.0036
lclavicle 2.49102e-014 1.27222e-014
lhumerus -32.891 9.5388 81.4241
lradius 27.6309
lwrist -1.53935
lhand -12.651 13.2212
lfingers 7.12502
lthumb 13.4296 42.7683
rfemur -5.10622 5.07861 33.8347
rtibia 28.5108
rfoot -20.0487 -18.0999
rtoes 4.18439
lfemur -28.5839 -2.0428 -15.0019
ltibia 59.7908
lfoot -8.66598 7.63712
ltoes -9.58624
163
root -8.31931 15.634 5.90898 -173.59 55.1364 -169.975
lowerback 11.0248 0.447971 4.20546
upperback -0.599926 1.25214 0.950921
thorax -6.76553 0.495603 -1.57807
lowerneck -11.925 -7.79267 -11.9778
upperneck 28.9987 -9.30809 6.79325
head 12.5131 -4.2847 3.32905
rclavicle -1.02051e-013 5.1684e-015
rhumerus -30.1963 0.748715 -87.1548
rradius 32.0735
rwrist 7.44855
rhand -17.013 13.3923
rfingers 7.12502
rthumb 9.22275 -16.386
lclavicle -1.02051e-013 5.1684e-015
lhumerus -32.8668 9.91372 81.325
lradius 27.4864
lwrist -1.37591
lhand -12.9912 12.9584
lfingers 7.12502
lthumb 13.1017 42.5269
rfemur -4.43694 5.03542 33.9213
rtibia 28.0212
rfoot -19.8713 -18.2051
rtoes 3.51113
lfemur -29.0293 -2.2566 -14.954
ltibia 58.1351
lfoot -9.11748 7.53599
ltoes -11.877
164
root -8.22892 15.6352 5.85619 -173.38 55.1879 -169.735
lowerback 11.0685 0.434464 4.29338
upperback -0.615413 1.25414 1.00867
thorax -6.80659 0.494024 -1.56783
lowerneck -11.7744 -7.75779 -12.0428
upperneck 28.7408 -9.27896 6.84968
head 12.3806 -4.28092 3.36479
rclavicle 8.48562e-014 1.11319e-014
rhumerus -30.2325 1.58865 -87.5517
rradius 32.5562
rwrist 6.74056
rhand -16.8728 13.0866
rfingers 7.12502
rthumb 9.35805 -16.6857
lclavicle 8.48562e-014 1.11319e-014
lhumerus -32.9843 10.1307 81.3132
lradius 27.4113
lwrist -1.07014
lhand -13.3335 12.7172
lfingers 7.12502
lthumb 12.7717 42.3065
rfemur -3.73865 5.18997 34.1842
rtibia 27.473
rfoot -19.6305 -18.5837
rtoes 2.7171
lfemur -29.415 -2.50023 -14.7107
ltibia 56.3884
lfoot -9.81828 7.42975
ltoes -11.5401
165
root -8.13856 15.6358 5.80281 -173.191 55.2591 -169.495
lowerback 11.1635 0.460121 4.38906
upperback -0.642346 1.31221 1.05895
thorax -6.88547 0.518337 -1.58001
lowerneck -11.7151 -7.73809 -12.1097
upperneck 28.5992 -9.2608 6.90848
head 12.3162 -4.2774 3.39996
rclavicle -2.45251e-014 -1.98785e-015
rhumerus -30.3286 2.20345 -87.8577
rradius 32.9961
rwrist 6.12062
rhand -16.8776 12.9624
rfingers 7.12502
rthumb 9.35348 -16.8101
lclavicle -2.45251e-014 -1.98785e-015
lhumerus -33.0725 10.3621 81.2398
lradius 27.3034
lwrist -1.58821
lhand -12.801 12.8991
lfingers 7.12502
lthumb 13.285 42.4557
rfemur -3.00056 5.30322 34.4219
rtibia 26.8766
rfoot -19.5496 -18.6926
rtoes 3.14684
lfemur -29.6812 -2.68191 -14.5097
ltibia 54.5493
lfoot -10.2967 7.45221
ltoes -12.4062
166
root -8.04608 15.6414 5.74483 -173.161 55.3673 -169.46
lowerback 11.1642 0.486706 4.42561
upperback -0.607785 1.34983 1.035
thorax -6.84541 0.536402 -1.63185
lowerneck -11.7288 -7.71485 -12.0931
upperneck 28.4312 -9.25818 6.98118
head 12.2533 -4.27043 3.42124
rclavicle 4.94974e-014 -3.18055e-015
rhumerus -30.2993 2.57437 -88.1655
rradius 33.3827
rwrist 5.78017
rhand -16.9192 12.7534
rfingers 7.12502
rthumb 9.31327 -17.0209
lclavicle 4.94974e-014 -3.18055e-015
lhumerus -33.0474 10.3956 81.2742
lradius 27.2372
lwrist -1.45291
lhand -12.8373 13.1518
lfingers 7.12502
lthumb 13.2501 42.7107
rfemur -2.22155 5.26264 34.4651
rtibia 26.2122
rfoot -19.4463 -18.5681
rtoes 3.9124
lfemur -29.8662 -2.80573 -14.5164
ltibia 52.6549
lfoot -10.3661 7.82202
ltoes -15.059
167
root -7.95354 15.6485 5.68645 -173.079 55.431 -169.427
lowerback 11.0911 0.487818 4.48479
upperback -0.571943 1.3509 0.997652
thorax -6.7635 0.536416 -1.70312
lowerneck -11.729 -7.68418 -12.0398
upperneck 28.2152 -9.25953 7.0655
head 12.1671 -4.26145 3.43951
rclavicle -1.07841e-014 1.98785e-015
rhumerus -30.0583 2.63373 -88.3862
rradius 33.4166
rwrist 5.9027
rhand -16.8751 12.7656
rfingers 7.12502
rthumb 9.35582 -17.0068
lclavicle -1.07841e-014 1.98785e-015
lhumerus -33.0003 10.2026 81.4577
lradius 27.1159
lwrist -0.395847
lhand -13.96 13.067
lfingers 7.12502
lthumb 12.1677 42.6931
rfemur -1.46814 5.19949 34.5168
rtibia 25.4786
rfoot -19.1183 -18.6617
rtoes 3.55485
lfemur -30.0682 -2.97453 -14.4863
ltibia 50.7459
lfoot -10.3617 8.23649
ltoes -16.1327
168
root -7.86033 15.6563 5.62834 -172.9 55.4091 -169.311
lowerback 10.9977 0.48066 4.55787
upperback -0.593717 1.34651 1.0043
thorax -6.73276 0.532121 -1.73495
lowerneck -11.6396 -7.64221 -12.0032
upperneck 27.985 -9.23466 7.11193
head 12.0535 -4.2479 3.45258
rclavicle -1.35671e-014 3.97569e-015
rhumerus -29.8513 2.59194 -88.5552
rradius 33.2642
rwrist 6.03411
rhand -16.898 12.8182
rfingers 7.12502
rthumb 9.33378 -16.9552
lclavicle -1.35671e-014 3.97569e-015
lhumerus -33.0578 10.4418 81.3457
lradius 26.8117
lwrist -0.649892
lhand -14.1366 12.7452
lfingers 7.12502
lthumb 11.9974 42.3813
rfemur -0.68861 5.14779 34.6428
rtibia 24.6404
rfoot -18.9577 -18.704
rtoes 2.99137
lfemur -30.301 -3.26567 -14.3199
ltibia 48.8255
lfoot -10.5309 8.61078
ltoes -14.2476
169
root -7.76398 15.6617 5.56954 -172.812 55.4208 -169.248
lowerback 10.9441 0.498943 4.54807
upperback -0.609476 1.36786 1.02029
thorax -6.71837 0.543252 -1.7152
lowerneck -11.6328 -7.62643 -12.1051
upperneck 27.9133 -9.25156 7.32343
head 12.0428 -4.24244 3.54662
rclavicle 6.50274e-014 -1.07344e-014
rhumerus -29.8371 2.79058 -88.7762
rradius 33.3583
rwrist 5.83742
rhand -16.7397 13.0622
rfingers 7.12502
rthumb 9.48654 -16.7042
lclavicle 6.50274e-014 -1.07344e-014
lhumerus -33.1199 11.0245 81.0111
lradius 26.508
lwrist -1.91856
lhand -13.2054 12.8187
lfingers 7.12502
lthumb 12.8952 42.4003
rfemur 0.219838 5.213 34.7741
rtibia 23.7329
rfoot -18.9735 -18.836
rtoes 2.46717
lfemur -30.4624 -3.60383 -14.1681
ltibia 46.8699
lfoot -10.6409 9.17689
ltoes -11.2396
170
root -7.66661 15.6651 5.50765 -172.709 55.479 -169.156
lowerback 10.8499 0.52886 4.5946
upperback -0.578648 1.40559 0.999956
thorax -6.62822 0.562262 -1.76689
lowerneck -11.7082 -7.62863 -12.2698
upperneck 27.8966 -9.32239 7.70764
head 12.0905 -4.24458 3.70814
rclavicle -7.07922e-014 -4.77083e-015
rhumerus -29.8371 3.00726 -89.0283
rradius 33.5847
rwrist 5.70657
rhand -16.5297 13.2426
rfingers 7.12502
rthumb 9.68915 -16.5146
lclavicle -7.07922e-014 -4.77083e-015
lhumerus -33.1483 11.0884 81.0002
lradius 26.4015
lwrist -1.86631
lhand -13.3767 13.1309
lfingers 7.12502
lthumb 12.73 42.7228
rfemur 1.16689 5.51967 34.9733
rtibia 22.8151
rfoot -18.859 -19.3
rtoes 1.74686
lfemur -30.5321 -3.88945 -14.0325
ltibia 44.883
lfoot -10.5972 9.8777
ltoes -9.60648
171
root -7.57048 15.6685 5.44333 -172.675 55.5564 -169.115
lowerback 10.7851 0.541011 4.6171
upperback -0.529218 1.42029 1.00666
thorax -6.53763 0.57204 -1.77322
lowerneck -11.73 -7.615 -12.39
upperneck 27.717 -9.34429 7.93753
head 12.0457 -4.2445 3.80775
rclavicle 6.49032e-014 -1.94809e-014
rhumerus -29.746 3.1572 -89.1871
rradius 33.68
rwrist 5.72621
rhand -16.7293 12.9912
rfingers 7.12502
rthumb 9.49656 -16.7748
lclavicle 6.49032e-014 -1.94809e-014
lhumerus -33.2453 10.627 81.4258
lradius 26.4045
lwrist -0.193977
lhand -14.8842 13.0457
lfingers 7.12502
lthumb 11.2765 42.7226
rfemur 2.11326 5.67771 35.1056
rtibia 21.905
rfoot -18.5635 -19.6769
rtoes 0.896567
lfemur -30.4173 -4.14734 -13.9787
ltibia 42.854
lfoot -10.5699 10.6948
ltoes -10.1545
172
root -7.47613 15.6745 5.37781 -172.625 55.6394 -169.036
lowerback 10.7977 0.561486 4.64738
upperback -0.500692 1.45563 1.05034
thorax -6.51277 0.590771 -1.74993
lowerneck -11.7807 -7.61011 -12.5001
upperneck 27.5318 -9.33788 8.02512
head 11.9933 -4.24798 3.85397
rclavicle -1.39634e-013 7.15625e-015
rhumerus -29.7084 3.44274 -89.3267
rradius 33.7974
rwrist 5.52035
rhand -17.0109 12.5965
rfingers 7.12502
rthumb 9.22483 -17.1817
lclavicle -1.39634e-013 7.15625e-015
lhumerus -33.3402 10.4854 81.609
lradius 26.2774
lwrist 0.258049
lhand -15.0738 12.8938
lfingers 7.12502
lthumb 11.0935 42.5806
rfemur 3.04672 5.57759 35.1682
rtibia 21.0174
rfoot -18.3005 -19.7202
rtoes 0.314146
lfemur -30.2643 -4.47594 -13.8692
ltibia 40.8334
lfoot -10.7289 11.5847
ltoes -9.85148
173
root -7.38057 15.6797 5.3114 -172.551 55.7773 -168.95
lowerback 10.7884 0.597363 4.64458
upperback -0.476077 1.50577 1.09462
thorax -6.4795 0.617901 -1.70936
lowerneck -11.8348 -7.5974 -12.5892
upperneck 27.3536 -9.31955 8.09594
head 11.9408 -4.24554 3.89221
rclavicle 6.96368e-014 3.18055e-015
rhumerus -29.7243 3.78592 -89.4925
rradius 33.9823
rwrist 5.22656
rhand -17.0018 12.2316
rfingers 7.12502
rthumb 9.23356 -17.5462
lclavicle 6.96368e-014 3.18055e-015
lhumerus -33.3946 11.3165 81.1978
lradius 25.9134
lwrist -1.4216
lhand -13.5913 12.7677
lfingers 7.12502
lthumb 12.5231 42.3724
rfemur 3.96274 5.40648 35.1962
rtibia 20.124
rfoot -17.996 -19.6904
rtoes -0.564837
lfemur -30.173 -4.84878 -13.687
ltibia 38.875
lfoot -11.0421 12.401
ltoes -9.1352
